HIERARCHY
ROOT Hips
{
  OFFSET 0.119678 17.0473 -0.101963
  CHANNELS 6 Xposition Yposition Zposition Zrotation Xrotation Yrotation
  JOINT LHipJoint
  {
    OFFSET 0 0 0
    CHANNELS 6 Xposition Yposition Zposition Zrotation Xrotation Yrotation
    JOINT LeftUpLeg
    {
      OFFSET 1.36306 -1.79463 0.83929
      CHANNELS 6 Xposition Yposition Zposition Zrotation Xrotation Yrotation
      JOINT LeftLeg
      {
        OFFSET 2.44811 -6.72613 0
        CHANNELS 6 Xposition Yposition Zposition Zrotation Xrotation Yrotation
        JOINT LeftFoot
        {
          OFFSET 2.5622 -7.03959 0
          CHANNELS 6 Xposition Yposition Zposition Zrotation Xrotation Yrotation
          JOINT LeftToeBase
          {
            OFFSET 0.15764 -0.43311 2.32255
            CHANNELS 6 Xposition Yposition Zposition Zrotation Xrotation Yrotation
            End Site
            {
              OFFSET 0 0 0
            }
          }
        }
      }
    }
  }
  JOINT RHipJoint
  {
    OFFSET 0 0 0
    CHANNELS 6 Xposition Yposition Zposition Zrotation Xrotation Yrotation
    JOINT RightUpLeg
    {
      OFFSET -1.30552 -1.79463 0.83929
      CHANNELS 6 Xposition Yposition Zposition Zrotation Xrotation Yrotation
      JOINT RightLeg
      {
        OFFSET -2.54253 -6.98555 0
        CHANNELS 6 Xposition Yposition Zposition Zrotation Xrotation Yrotation
        JOINT RightFoot
        {
          OFFSET -2.56826 -7.05623 0
          CHANNELS 6 Xposition Yposition Zposition Zrotation Xrotation Yrotation
          JOINT RightToeBase
          {
            OFFSET -0.16473 -0.45259 2.36315
            CHANNELS 6 Xposition Yposition Zposition Zrotation Xrotation Yrotation
            End Site
            {
              OFFSET 0 0 0
            }
          }
        }
      }
    }
  }
  JOINT LowerBack
  {
    OFFSET 0 0 0
    CHANNELS 6 Xposition Yposition Zposition Zrotation Xrotation Yrotation
    JOINT Spine
    {
      OFFSET 0.02827 2.03559 -0.19338
      CHANNELS 6 Xposition Yposition Zposition Zrotation Xrotation Yrotation
      JOINT Spine1
      {
        OFFSET 0.05672 2.04885 -0.04275
        CHANNELS 6 Xposition Yposition Zposition Zrotation Xrotation Yrotation
        JOINT Neck
        {
          OFFSET 0 0 0
          CHANNELS 6 Xposition Yposition Zposition Zrotation Xrotation Yrotation
          JOINT Neck1
          {
            OFFSET -0.05417 1.74624 0.17202
            CHANNELS 6 Xposition Yposition Zposition Zrotation Xrotation Yrotation
            JOINT Head
            {
              OFFSET 0.10407 1.76136 -0.12397
              CHANNELS 6 Xposition Yposition Zposition Zrotation Xrotation Yrotation
              End Site
              {
                OFFSET 0 0 0
              }
            }
          }
        }
        JOINT LeftShoulder
        {
          OFFSET 0 0 0
          CHANNELS 6 Xposition Yposition Zposition Zrotation Xrotation Yrotation
          JOINT LeftArm
          {
            OFFSET 3.36241 1.20089 -0.31121
            CHANNELS 6 Xposition Yposition Zposition Zrotation Xrotation Yrotation
            JOINT LeftForeArm
            {
              OFFSET 4.983 0 0
              CHANNELS 6 Xposition Yposition Zposition Zrotation Xrotation Yrotation
              JOINT LeftHand
              {
                OFFSET 3.48356 0 0
                CHANNELS 6 Xposition Yposition Zposition Zrotation Xrotation Yrotation
                JOINT LeftFingerBase
                {
                  OFFSET 0 0 0
                  CHANNELS 6 Xposition Yposition Zposition Zrotation Xrotation Yrotation
                  JOINT LeftHandIndex1
                  {
                    OFFSET 0.71526 0 0
                    CHANNELS 6 Xposition Yposition Zposition Zrotation Xrotation Yrotation
                    End Site
                    {
                      OFFSET 0 0 0
                    }
                  }
                }
                JOINT LThumb
                {
                  OFFSET 0 0 0
                  CHANNELS 6 Xposition Yposition Zposition Zrotation Xrotation Yrotation
                  End Site
                  {
                    OFFSET 0 0 0
                  }
                }
              }
            }
          }
        }
        JOINT RightShoulder
        {
          OFFSET 0 0 0
          CHANNELS 6 Xposition Yposition Zposition Zrotation Xrotation Yrotation
          JOINT RightArm
          {
            OFFSET -3.1366 1.37405 -0.40465
            CHANNELS 6 Xposition Yposition Zposition Zrotation Xrotation Yrotation
            JOINT RightForeArm
            {
              OFFSET -5.2419 0 0
              CHANNELS 6 Xposition Yposition Zposition Zrotation Xrotation Yrotation
              JOINT RightHand
              {
                OFFSET -3.44417 0 0
                CHANNELS 6 Xposition Yposition Zposition Zrotation Xrotation Yrotation
                JOINT RightFingerBase
                {
                  OFFSET 0 0 0
                  CHANNELS 6 Xposition Yposition Zposition Zrotation Xrotation Yrotation
                  JOINT RightHandIndex1
                  {
                    OFFSET -0.62253 0 0
                    CHANNELS 6 Xposition Yposition Zposition Zrotation Xrotation Yrotation
                    End Site
                    {
                      OFFSET 0 0 0
                    }
                  }
                }
                JOINT RThumb
                {
                  OFFSET 0 0 0
                  CHANNELS 6 Xposition Yposition Zposition Zrotation Xrotation Yrotation
                  End Site
                  {
                    OFFSET 0 0 0
                  }
                }
              }
            }
          }
        }
      }
    }
  }
}
MOTION
Frames:	6
Frame Time:	0.00833333
0.0908512 17.0132 147.199 -0.292154 8.45594 -1.03072 0 0 0 -0.299681 5.35791 18.0368 1.36306 -1.79463 0.83929 -19.0794 -3.91144 -3.61247 2.44811 -6.72613 -2.84217e-014 3.26002 42.5604 7.18719 2.5622 -7.03959 0 -0.286559 18.3677 2.83045 0.15764 -0.43311 2.32255 -0.313516 -8.56385 -2.52351 0 0 0 -8.85582 0.425549 -20.6242 -1.30552 -1.79463 0.83929 52.1935 -33.6991 25.4864 -2.54253 -6.98555 0 -6.1884 35.019 -3.22774 -2.56826 -7.05623 0 -0.97165 13.4255 0.456493 -0.16473 -0.45259 2.36315 -0.009764 -0.030302 0.00966769 0 0 0 -1.93281 -2.12354 0.12108 0.02827 2.03559 -0.19338 5.36328 30.677 -1.02496 0.05672 2.04885 -0.04275 -2.84711 -9.64853 0.546315 0 0 0 -0.875845 -9.85647 -0.0853177 -0.05417 1.74624 0.17202 2.60944 26.9618 -1.3714 0.10407 1.76136 -0.12397 -0.0905615 -0.0287353 -0.0555167 0 0 0 10.6402 -7.89372 6.63148 3.36241 1.20089 -0.31121 -72.1378 31.8479 -68.2469 4.983 0 -1.42109e-014 -42.0722 34.6428 -78.1892 3.48356 0 0 -26.1177 -7.46029 13.1101 0 0 0 -0.121023 -5.01079e-006 -1.14814 0.71526 0 0 -1.72647e-006 -1.11227e-007 -6.60598e-007 0 0 0 3.18055e-015 -2.78299e-015 -1.98785e-015 0 0 0 -13.68 -3.60895 -21.5083 -3.1366 1.37405 -0.40465 102.64 22.0757 41.8208 -5.2419 0 0 9.84732 2.78825 10.8086 -3.44417 0 0 -0.197441 0.129564 2.98744 0 0 0 0.388204 -3.11374e-006 2.4941 -0.62253 3.55271e-015 0 -7.95139e-016 -7.95139e-016 -1.27222e-014 0 0 0 -7.95139e-016 1.59028e-015 -0 
0.0692764 17.0028 147.313 -0.507445 8.30476 -0.846418 0 0 0 -0.299681 5.35791 18.0368 1.36306 -1.79463 0.83929 -18.8214 -4.32685 -3.67633 2.44811 -6.72613 0 3.10387 43.6002 7.13276 2.5622 -7.03959 -1.42109e-014 0.595892 19.9268 3.32304 0.15764 -0.43311 2.32255 -0.270917 -8.27417 -2.55248 0 0 0 -8.85582 0.425549 -20.6242 -1.30552 -1.79463 0.83929 52.2108 -33.4525 25.4479 -2.54253 -6.98555 0 -6.24289 35.5782 -3.78384 -2.56826 -7.05623 0 -0.731018 14.6913 -0.0298093 -0.16473 -0.45259 2.36315 -0.00978995 -0.0495799 0.0165165 0 0 0 -1.93281 -2.12354 0.12108 0.02827 2.03559 -0.19338 5.57801 30.7708 -1.03576 0.05672 2.04885 -0.04275 -2.87848 -9.64277 0.536166 0 0 0 -0.78515 -9.79657 -0.121136 -0.05417 1.74624 0.17202 2.72622 27.0196 -1.432 0.10407 1.76136 -0.12397 -0.156736 -0.0657819 -0.078915 0 0 0 10.7025 -7.85034 6.59842 3.36241 1.20089 -0.31121 -72.1592 31.7289 -68.1127 4.983 0 -1.42109e-014 -42.1337 34.6887 -78.2264 3.48356 0 -1.77636e-015 -26.1176 -7.40945 13.0081 0 0 0 -0.121023 -5.01079e-006 -1.14814 0.71526 0 0 -1.72647e-006 -1.11227e-007 -6.60598e-007 0 0 0 2.75869e-033 -7.95139e-016 1.98785e-016 0 0 0 -13.579 -3.55815 -21.5139 -3.1366 1.37405 -0.40465 102.7 22.1046 41.9779 -5.2419 0 0 9.71185 2.84137 10.4712 -3.44417 -3.55271e-015 0 -0.245566 0.176542 3.13338 0 0 0 0.388204 -3.11374e-006 2.4941 -0.62253 -3.55271e-015 0 1.59028e-015 0 -1.27222e-014 0 0 0 -7.95139e-016 1.59028e-015 -3.18055e-015 
0.0458155 16.9823 147.464 -0.77383 8.11994 -0.655015 0 0 0 -0.299681 5.35791 18.0368 1.36306 -1.79463 0.83929 -18.46 -4.89509 -3.9102 2.44811 -6.72613 2.84217e-014 2.88681 45.034 7.21355 2.5622 -7.03959 -1.42109e-014 0.546805 21.8839 4.18911 0.15764 -0.43311 2.32255 -0.15543 -8.46628 -2.53142 0 0 0 -8.85582 0.425549 -20.6242 -1.30552 -1.79463 0.83929 52.2607 -33.1606 25.3939 -2.54253 -6.98555 0 -6.31028 36.2481 -4.28309 -2.56826 -7.05623 0 -0.443876 16.0157 -0.55457 -0.16473 -0.45259 2.36315 -0.00986546 -0.0667083 0.022603 0 0 0 -1.93281 -2.12354 0.12108 0.02827 2.03559 -0.19338 5.84484 30.8849 -1.05207 0.05672 2.04885 -0.04275 -2.91771 -9.63476 0.522019 0 0 0 -0.682239 -9.72716 -0.160503 -0.05417 1.74624 0.17202 2.85819 27.0864 -1.49948 0.10407 1.76136 -0.12397 -0.234065 -0.117293 -0.10018 0 0 0 10.7787 -7.79422 6.564 3.36241 1.20089 -0.31121 -72.1845 31.5984 -67.9858 4.983 0 0 -42.1986 34.726 -78.254 3.48356 0 1.77636e-015 -26.123 -7.36522 12.9179 0 0 0 -0.121023 -5.01079e-006 -1.14814 0.71526 -2.84217e-014 1.77636e-015 -1.72647e-006 -1.11227e-007 -6.60598e-007 0 0 0 1.44831e-032 1.19271e-015 -6.95746e-016 0 0 0 -13.4699 -3.4954 -21.5116 -3.1366 1.37405 -0.40465 102.628 22.0979 41.9514 -5.2419 0 -2.84217e-014 9.78472 2.9411 10.6303 -3.44417 0 0 -0.390204 0.169265 3.07162 0 0 0 0.388204 -3.11374e-006 2.4941 -0.62253 0 0 1.59028e-015 0 -6.36111e-015 0 0 0 7.95139e-016 0 -9.54166e-015 
0.0183582 16.9477 147.671 -1.10896 7.88444 -0.441416 0 0 0 -0.299681 5.35791 18.0368 1.36306 -1.79463 0.83929 -17.938 -5.6569 -4.33703 2.44811 -6.72613 0 2.56086 47.0111 7.4509 2.5622 -7.03959 1.42109e-014 -0.845025 24.4763 5.6051 0.15764 -0.43311 2.32255 0.0813736 -9.63917 -2.48797 0 0 0 -8.85582 0.425549 -20.6242 -1.30552 -1.79463 0.83929 52.3464 -32.7976 25.3228 -2.54253 -6.98555 0 -6.39397 37.0213 -4.69638 -2.56826 -7.05623 -2.84217e-014 -0.0692886 17.6474 -1.22494 -0.16473 -0.45259 2.36315 -0.0100061 -0.0811964 0.0277524 0 0 0 -1.93281 -2.12354 0.12108 0.02827 2.03559 -0.19338 6.17933 31.0272 -1.07589 0.05672 2.04885 -0.04275 -2.96537 -9.62405 0.502273 0 0 0 -0.559078 -9.64484 -0.206692 -0.05417 1.74624 0.17202 3.01575 27.1655 -1.57925 0.10407 1.76136 -0.12397 -0.328569 -0.187805 -0.121544 0 0 0 10.8777 -7.72252 6.52134 3.36241 1.20089 -0.31121 -72.2154 31.4516 -67.8719 4.983 -1.42109e-014 0 -42.2679 34.7511 -78.2681 3.48356 2.84217e-014 -1.77636e-015 -26.137 -7.33236 12.8479 0 0 0 -0.121023 -5.01079e-006 -1.14814 0.71526 0 -3.55271e-015 -1.72647e-006 -1.11227e-007 -6.60598e-007 0 0 0 -3.18055e-015 3.97569e-016 -1.98785e-015 0 0 0 -13.3457 -3.41572 -21.5022 -3.1366 1.37405 -0.40465 102.376 22.0377 41.6866 -5.2419 0 -2.84217e-014 10.127 3.06887 11.4603 -3.44417 0 0 -0.647997 0.0841482 2.72468 0 0 0 0.388204 -3.11374e-006 2.4941 -0.62253 3.55271e-015 0 -7.95139e-016 1.59028e-015 -1.59028e-014 0 0 0 -1.59028e-015 1.59028e-015 3.18055e-015 
-0.0134892 16.9039 147.909 -1.50732 7.60186 -0.20593 0 0 0 -0.299681 5.35791 18.0368 1.36306 -1.79463 0.83929 -17.314 -6.59368 -4.93515 2.44811 -6.72613 2.84217e-014 2.10656 49.4189 7.84945 2.5622 -7.03959 1.42109e-014 -3.237 27.4591 7.45508 0.15764 -0.43311 2.32255 0.446833 -11.3102 -2.35698 0 0 0 -8.85582 0.425549 -20.6242 -1.30552 -1.79463 0.83929 52.4496 -32.3513 25.2277 -2.54253 -6.98555 0 -6.48839 37.9363 -5.0965 -2.56826 -7.05623 -2.84217e-014 0.413524 19.5122 -2.01653 -0.16473 -0.45259 2.36315 -0.0102249 -0.094886 0.0326202 0 0 0 -1.93281 -2.12354 0.12108 0.02827 2.03559 -0.19338 6.57422 31.1968 -1.1035 0.05672 2.04885 -0.04275 -3.02311 -9.61056 0.479897 0 0 0 -0.416759 -9.54772 -0.258918 -0.05417 1.74624 0.17202 3.19743 27.2588 -1.67039 0.10407 1.76136 -0.12397 -0.439193 -0.276024 -0.142008 0 0 0 10.9919 -7.63311 6.48026 3.36241 1.20089 -0.31121 -72.253 31.2725 -67.7388 4.983 0 0 -42.355 34.7776 -78.2804 3.48356 0 -3.55271e-015 -26.1547 -7.29205 12.7621 0 0 0 -0.121023 -5.01079e-006 -1.14814 0.71526 0 -3.55271e-015 -1.72647e-006 -1.11227e-007 -6.60598e-007 0 0 0 1.24141e-032 1.19271e-015 -5.96354e-016 0 0 0 -13.2061 -3.3206 -21.4834 -3.1366 1.37405 -0.40465 101.981 21.9381 41.21 -5.2419 1.77636e-015 -2.84217e-014 10.6802 3.2906 12.8331 -3.44417 0 0 -1.04808 -0.0615383 2.14143 0 0 0 0.388204 -3.11374e-006 2.4941 -0.62253 -3.55271e-015 -1.42109e-014 1.59028e-015 1.59028e-015 -9.54166e-015 0 0 0 -7.95139e-016 -1.59028e-015 -0 
-0.0446835 16.8562 148.156 -1.93154 7.30781 0.0174886 0 0 0 -0.299681 5.35791 18.0368 1.36306 -1.79463 0.83929 -16.7079 -7.62356 -5.67477 2.44811 -6.72613 2.84217e-014 1.54165 51.9996 8.45432 2.5622 -7.03959 1.42109e-014 -6.25556 30.4206 9.58205 0.15764 -0.43311 2.32255 0.840491 -12.719 -2.12398 0 0 0 -8.85582 0.425549 -20.6242 -1.30552 -1.79463 0.83929 52.579 -31.8881 25.1203 -2.54253 -6.98555 0 -6.58391 38.9825 -5.50053 -2.56826 -7.05623 2.84217e-014 0.916114 21.103 -2.71667 -0.16473 -0.45259 2.36315 -0.0105363 -0.1075 0.0371078 0 0 0 -1.93281 -2.12354 0.12108 0.02827 2.03559 -0.19338 7.00022 31.3764 -1.13338 0.05672 2.04885 -0.04275 -3.08841 -9.59537 0.456272 0 0 0 -0.272383 -9.44482 -0.310381 -0.05417 1.74624 0.17202 3.38123 27.3577 -1.76152 0.10407 1.76136 -0.12397 -0.553221 -0.372713 -0.157297 0 0 0 11.1076 -7.53391 6.44891 3.36241 1.20089 -0.31121 -72.2927 31.084 -67.5986 4.983 1.42109e-014 1.42109e-014 -42.4474 34.8033 -78.2907 3.48356 2.84217e-014 -1.77636e-015 -26.1725 -7.24777 12.6683 0 0 0 -0.121023 -5.01079e-006 -1.14814 0.71526 -2.84217e-014 -1.77636e-015 -1.72647e-006 -1.11227e-007 -6.60598e-007 0 0 0 3.18055e-015 -3.57812e-015 -1.09332e-015 0 0 0 -13.0673 -3.22007 -21.4552 -3.1366 1.37405 -0.40465 101.524 21.823 40.6258 -5.2419 -1.77636e-015 -2.84217e-014 11.3282 3.59078 14.4543 -3.44417 0 0 -1.53536 -0.227837 1.45958 0 0 0 0.388204 -3.11374e-006 2.4941 -0.62253 0 0 1.59028e-015 -1.59028e-015 -3.18055e-015 0 0 0 7.95139e-016 -1.59028e-015 6.36111e-015 
